<?xml version="1.0" encoding="us-ascii" standalone="no"?><svg xmlns="http://www.w3.org/2000/svg" xmlns:xlink="http://www.w3.org/1999/xlink" contentStyleType="text/css" height="715px" preserveAspectRatio="none" style="width:708px;height:715px;background:#FFFFFF;" version="1.1" viewBox="0 0 708 715" width="708px" zoomAndPan="magnify"><defs/><g><!--class workflows--><g id="elem_workflows"><rect codeLine="2" fill="#F1F1F1" height="97.4648" id="workflows" rx="2.5" ry="2.5" style="stroke:#181818;stroke-width:0.5;" width="137" x="319" y="7"/><ellipse cx="349.75" cy="23" fill="#ADD1B2" rx="11" ry="11" style="stroke:#181818;stroke-width:1.0;"/><path d="M353.3643,29.5 L345.6445,29.5 L345.6445,17.1069 L353.3643,17.1069 L353.3643,19.2651 L348.0933,19.2651 L348.0933,21.938 L352.8662,21.938 L352.8662,24.0962 L348.0933,24.0962 L348.0933,27.3418 L353.3643,27.3418 Z " fill="#000000"/><text fill="#000000" font-family="sans-serif" font-size="14" lengthAdjust="spacing" textLength="70" x="367.25" y="28.291">workflows</text><line style="stroke:#181818;stroke-width:0.5;" x1="320" x2="455" y1="39" y2="39"/><text fill="#000000" font-family="sans-serif" font-size="14" lengthAdjust="spacing" textLength="52" x="325" y="56.5352">id: uuid</text><text fill="#000000" font-family="sans-serif" font-size="14" lengthAdjust="spacing" textLength="86" x="325" y="73.0234">name: string</text><text fill="#000000" font-family="sans-serif" font-size="14" lengthAdjust="spacing" textLength="125" x="325" y="89.5117">description: string</text><line style="stroke:#181818;stroke-width:0.5;" x1="320" x2="455" y1="96.4648" y2="96.4648"/></g><!--class workflow_actions--><g id="elem_workflow_actions"><rect codeLine="8" fill="#F1F1F1" height="113.9531" id="workflow_actions" rx="2.5" ry="2.5" style="stroke:#181818;stroke-width:0.5;" width="151" x="469" y="570.08"/><ellipse cx="484" cy="586.08" fill="#ADD1B2" rx="11" ry="11" style="stroke:#181818;stroke-width:1.0;"/><path d="M487.6143,592.58 L479.8945,592.58 L479.8945,580.1869 L487.6143,580.1869 L487.6143,582.3451 L482.3433,582.3451 L482.3433,585.018 L487.1162,585.018 L487.1162,587.1762 L482.3433,587.1762 L482.3433,590.4218 L487.6143,590.4218 Z " fill="#000000"/><text fill="#000000" font-family="sans-serif" font-size="14" lengthAdjust="spacing" textLength="119" x="498" y="591.371">workflow_actions</text><line style="stroke:#181818;stroke-width:0.5;" x1="470" x2="619" y1="602.08" y2="602.08"/><text fill="#000000" font-family="sans-serif" font-size="14" lengthAdjust="spacing" textLength="52" x="475" y="619.6152">id: uuid</text><text fill="#000000" font-family="sans-serif" font-size="14" lengthAdjust="spacing" textLength="86" x="475" y="636.1034">name: string</text><text fill="#000000" font-family="sans-serif" font-size="14" lengthAdjust="spacing" textLength="125" x="475" y="652.5917">description: string</text><text fill="#000000" font-family="sans-serif" font-size="14" lengthAdjust="spacing" textLength="122" x="475" y="669.08">workflow_id: uuid</text><line style="stroke:#181818;stroke-width:0.5;" x1="470" x2="619" y1="676.0331" y2="676.0331"/></g><!--class workflow_conditions--><g id="elem_workflow_conditions"><rect codeLine="15" fill="#F1F1F1" height="113.9531" id="workflow_conditions" rx="2.5" ry="2.5" style="stroke:#181818;stroke-width:0.5;" width="174" x="527.5" y="363.15"/><ellipse cx="542.5" cy="379.15" fill="#ADD1B2" rx="11" ry="11" style="stroke:#181818;stroke-width:1.0;"/><path d="M546.1143,385.65 L538.3945,385.65 L538.3945,373.2569 L546.1143,373.2569 L546.1143,375.4151 L540.8433,375.4151 L540.8433,378.088 L545.6162,378.088 L545.6162,380.2462 L540.8433,380.2462 L540.8433,383.4918 L546.1143,383.4918 Z " fill="#000000"/><text fill="#000000" font-family="sans-serif" font-size="14" lengthAdjust="spacing" textLength="142" x="556.5" y="384.441">workflow_conditions</text><line style="stroke:#181818;stroke-width:0.5;" x1="528.5" x2="700.5" y1="395.15" y2="395.15"/><text fill="#000000" font-family="sans-serif" font-size="14" lengthAdjust="spacing" textLength="52" x="533.5" y="412.6852">id: uuid</text><text fill="#000000" font-family="sans-serif" font-size="14" lengthAdjust="spacing" textLength="86" x="533.5" y="429.1734">name: string</text><text fill="#000000" font-family="sans-serif" font-size="14" lengthAdjust="spacing" textLength="125" x="533.5" y="445.6617">description: string</text><text fill="#000000" font-family="sans-serif" font-size="14" lengthAdjust="spacing" textLength="122" x="533.5" y="462.15">workflow_id: uuid</text><line style="stroke:#181818;stroke-width:0.5;" x1="528.5" x2="700.5" y1="469.1031" y2="469.1031"/></g><!--class workflow_runs--><g id="elem_workflow_runs"><rect codeLine="22" fill="#F1F1F1" height="130.4414" id="workflow_runs" rx="2.5" ry="2.5" style="stroke:#181818;stroke-width:0.5;" width="161" x="197" y="164.47"/><ellipse cx="224.6" cy="180.47" fill="#ADD1B2" rx="11" ry="11" style="stroke:#181818;stroke-width:1.0;"/><path d="M228.2143,186.97 L220.4945,186.97 L220.4945,174.5769 L228.2143,174.5769 L228.2143,176.7351 L222.9433,176.7351 L222.9433,179.408 L227.7162,179.408 L227.7162,181.5662 L222.9433,181.5662 L222.9433,184.8118 L228.2143,184.8118 Z " fill="#000000"/><text fill="#000000" font-family="sans-serif" font-size="14" lengthAdjust="spacing" textLength="101" x="241.4" y="185.761">workflow_runs</text><line style="stroke:#181818;stroke-width:0.5;" x1="198" x2="357" y1="196.47" y2="196.47"/><text fill="#000000" font-family="sans-serif" font-size="14" lengthAdjust="spacing" textLength="52" x="203" y="214.0052">id: uuid</text><text fill="#000000" font-family="sans-serif" font-size="14" lengthAdjust="spacing" textLength="149" x="203" y="230.4934">previous_run_id: uuid</text><text fill="#000000" font-family="sans-serif" font-size="14" lengthAdjust="spacing" textLength="122" x="203" y="246.9817">workflow_id: uuid</text><text fill="#000000" font-family="sans-serif" font-size="14" lengthAdjust="spacing" textLength="89" x="203" y="263.47">status: string</text><text fill="#000000" font-family="sans-serif" font-size="14" lengthAdjust="spacing" textLength="139" x="203" y="279.9583">created_at: datetime</text><line style="stroke:#181818;stroke-width:0.5;" x1="198" x2="357" y1="286.9114" y2="286.9114"/></g><!--class workflow_transitions--><g id="elem_workflow_transitions"><rect codeLine="30" fill="#F1F1F1" height="97.4648" id="workflow_transitions" rx="2.5" ry="2.5" style="stroke:#181818;stroke-width:0.5;" width="176" x="410.5" y="180.96"/><ellipse cx="425.95" cy="196.96" fill="#ADD1B2" rx="11" ry="11" style="stroke:#181818;stroke-width:1.0;"/><path d="M429.5643,203.46 L421.8445,203.46 L421.8445,191.0669 L429.5643,191.0669 L429.5643,193.2251 L424.2933,193.2251 L424.2933,195.898 L429.0662,195.898 L429.0662,198.0562 L424.2933,198.0562 L424.2933,201.3018 L429.5643,201.3018 Z " fill="#000000"/><text fill="#000000" font-family="sans-serif" font-size="14" lengthAdjust="spacing" textLength="143" x="440.05" y="202.251">workflow_transitions</text><line style="stroke:#181818;stroke-width:0.5;" x1="411.5" x2="585.5" y1="212.96" y2="212.96"/><text fill="#000000" font-family="sans-serif" font-size="14" lengthAdjust="spacing" textLength="141" x="416.5" y="230.4952">from_action_id: uuid</text><text fill="#000000" font-family="sans-serif" font-size="14" lengthAdjust="spacing" textLength="122" x="416.5" y="246.9834">to_action_id: uuid</text><text fill="#000000" font-family="sans-serif" font-size="14" lengthAdjust="spacing" textLength="164" x="416.5" y="263.4717">from_condition_id: uuid</text><line style="stroke:#181818;stroke-width:0.5;" x1="411.5" x2="585.5" y1="270.4248" y2="270.4248"/></g><!--class workflow_runs_actions--><g id="elem_workflow_runs_actions"><rect codeLine="36" fill="#F1F1F1" height="113.9531" id="workflow_runs_actions" rx="2.5" ry="2.5" style="stroke:#181818;stroke-width:0.5;" width="189" x="7" y="363.15"/><ellipse cx="22" cy="379.15" fill="#ADD1B2" rx="11" ry="11" style="stroke:#181818;stroke-width:1.0;"/><path d="M25.6143,385.65 L17.8945,385.65 L17.8945,373.2569 L25.6143,373.2569 L25.6143,375.4151 L20.3433,375.4151 L20.3433,378.088 L25.1162,378.088 L25.1162,380.2462 L20.3433,380.2462 L20.3433,383.4918 L25.6143,383.4918 Z " fill="#000000"/><text fill="#000000" font-family="sans-serif" font-size="14" lengthAdjust="spacing" textLength="157" x="36" y="384.441">workflow_runs_actions</text><line style="stroke:#181818;stroke-width:0.5;" x1="8" x2="195" y1="395.15" y2="395.15"/><text fill="#000000" font-family="sans-serif" font-size="14" lengthAdjust="spacing" textLength="52" x="13" y="412.6852">id: uuid</text><text fill="#000000" font-family="sans-serif" font-size="14" lengthAdjust="spacing" textLength="153" x="13" y="429.1734">workflow_run_id: uuid</text><text fill="#000000" font-family="sans-serif" font-size="14" lengthAdjust="spacing" textLength="171" x="13" y="445.6617">workflow_action_id: uuid</text><text fill="#000000" font-family="sans-serif" font-size="14" lengthAdjust="spacing" textLength="139" x="13" y="462.15">created_at: datetime</text><line style="stroke:#181818;stroke-width:0.5;" x1="8" x2="195" y1="469.1031" y2="469.1031"/></g><!--class action_status--><g id="elem_action_status"><rect codeLine="43" fill="#F1F1F1" height="163.418" id="action_status" rx="2.5" ry="2.5" style="stroke:#181818;stroke-width:0.5;" width="122" x="40.5" y="545.35"/><ellipse cx="55.5" cy="561.35" fill="#EB937F" rx="11" ry="11" style="stroke:#181818;stroke-width:1.0;"/><path d="M59.1143,567.85 L51.3945,567.85 L51.3945,555.4569 L59.1143,555.4569 L59.1143,557.6151 L53.8433,557.6151 L53.8433,560.288 L58.6162,560.288 L58.6162,562.4462 L53.8433,562.4462 L53.8433,565.6918 L59.1143,565.6918 Z " fill="#000000"/><text fill="#000000" font-family="sans-serif" font-size="14" lengthAdjust="spacing" textLength="90" x="69.5" y="566.641">action_status</text><line style="stroke:#181818;stroke-width:0.5;" x1="41.5" x2="161.5" y1="577.35" y2="577.35"/><text fill="#000000" font-family="sans-serif" font-size="14" lengthAdjust="spacing" textLength="60" x="46.5" y="594.8852">PENDING</text><text fill="#000000" font-family="sans-serif" font-size="14" lengthAdjust="spacing" textLength="63" x="46.5" y="611.3734">RUNNING</text><text fill="#000000" font-family="sans-serif" font-size="14" lengthAdjust="spacing" textLength="54" x="46.5" y="627.8617">PAUSED</text><text fill="#000000" font-family="sans-serif" font-size="14" lengthAdjust="spacing" textLength="55" x="46.5" y="644.35">SKIPPED</text><text fill="#000000" font-family="sans-serif" font-size="14" lengthAdjust="spacing" textLength="80" x="46.5" y="660.8383">CANCELLED</text><text fill="#000000" font-family="sans-serif" font-size="14" lengthAdjust="spacing" textLength="47" x="46.5" y="677.3266">FAILED</text><text fill="#000000" font-family="sans-serif" font-size="14" lengthAdjust="spacing" textLength="62" x="46.5" y="693.8148">SUCCESS</text><line style="stroke:#181818;stroke-width:0.5;" x1="41.5" x2="161.5" y1="700.768" y2="700.768"/></g><!--class workflow_status--><g id="elem_workflow_status"><rect codeLine="53" fill="#F1F1F1" height="130.4414" id="workflow_status" rx="2.5" ry="2.5" style="stroke:#181818;stroke-width:0.5;" width="143" x="231" y="354.91"/><ellipse cx="246" cy="370.91" fill="#EB937F" rx="11" ry="11" style="stroke:#181818;stroke-width:1.0;"/><path d="M249.6143,377.41 L241.8945,377.41 L241.8945,365.0169 L249.6143,365.0169 L249.6143,367.1751 L244.3433,367.1751 L244.3433,369.848 L249.1162,369.848 L249.1162,372.0062 L244.3433,372.0062 L244.3433,375.2518 L249.6143,375.2518 Z " fill="#000000"/><text fill="#000000" font-family="sans-serif" font-size="14" lengthAdjust="spacing" textLength="111" x="260" y="376.201">workflow_status</text><line style="stroke:#181818;stroke-width:0.5;" x1="232" x2="373" y1="386.91" y2="386.91"/><text fill="#000000" font-family="sans-serif" font-size="14" lengthAdjust="spacing" textLength="50" x="237" y="404.4452">ACTIVE</text><text fill="#000000" font-family="sans-serif" font-size="14" lengthAdjust="spacing" textLength="54" x="237" y="420.9334">PAUSED</text><text fill="#000000" font-family="sans-serif" font-size="14" lengthAdjust="spacing" textLength="80" x="237" y="437.4217">CANCELLED</text><text fill="#000000" font-family="sans-serif" font-size="14" lengthAdjust="spacing" textLength="47" x="237" y="453.91">FAILED</text><text fill="#000000" font-family="sans-serif" font-size="14" lengthAdjust="spacing" textLength="62" x="237" y="470.3983">SUCCESS</text><line style="stroke:#181818;stroke-width:0.5;" x1="232" x2="373" y1="477.3514" y2="477.3514"/></g><!--link workflows to workflow_transitions--><g id="link_workflows_workflow_transitions"><path codeLine="61" d="M422.7585,111.3614 C438.0885,135.1114 445.7142,146.9066 461.0442,170.6666 " fill="none" id="workflows-workflow_transitions" style="stroke:#181818;stroke-width:1.0;"/><line style="stroke:#181818;stroke-width:1.0;" x1="417.2285" x2="423.95" y1="110.17" y2="105.8315"/><line style="stroke:#181818;stroke-width:1.0;" x1="418.8555" x2="425.5769" y1="112.6905" y2="108.352"/><line style="stroke:#181818;stroke-width:1.0;" x1="422.7585" x2="418.42" y1="111.3614" y2="104.64"/><polygon fill="none" points="467.55,180.75,467.6582,173.5397,461.0442,170.6666,460.936,177.8769,467.55,180.75" style="stroke:#181818;stroke-width:1.0;"/></g><!--link workflows to workflow_runs--><g id="link_workflows_workflow_runs"><path codeLine="62" d="M352.5484,111.3787 C340.7884,129.7587 337.947,134.2017 325.337,153.9117 " fill="none" id="workflows-workflow_runs" style="stroke:#181818;stroke-width:1.0;"/><line style="stroke:#181818;stroke-width:1.0;" x1="351.3348" x2="358.0736" y1="105.8536" y2="110.1652"/><line style="stroke:#181818;stroke-width:1.0;" x1="349.718" x2="356.4567" y1="108.3806" y2="112.6922"/><line style="stroke:#181818;stroke-width:1.0;" x1="352.5484" x2="356.86" y1="111.3787" y2="104.64"/><polygon fill="none" points="318.87,164.02,325.4729,161.1215,325.337,153.9117,318.7341,156.8102,318.87,164.02" style="stroke:#181818;stroke-width:1.0;"/></g><!--link workflow_transitions to workflow_actions--><g id="link_workflow_transitions_workflow_actions"><path codeLine="64" d="M497.6935,286.83 C497.5235,338.24 499.19,413.96 509.5,485.35 C513.57,513.51 517.7333,532.6345 524.6233,558.1645 " fill="none" id="workflow_transitions-workflow_actions" style="stroke:#181818;stroke-width:1.0;"/><line style="stroke:#181818;stroke-width:1.0;" x1="493.7068" x2="501.7068" y1="282.8168" y2="282.8432"/><line style="stroke:#181818;stroke-width:1.0;" x1="493.6969" x2="501.6968" y1="285.8167" y2="285.8432"/><line style="stroke:#181818;stroke-width:1.0;" x1="497.6935" x2="497.72" y1="286.83" y2="278.83"/><polygon fill="none" points="527.75,569.75,530.0485,562.915,524.6233,558.1645,522.3248,564.9995,527.75,569.75" style="stroke:#181818;stroke-width:1.0;"/></g><!--link workflow_transitions to workflow_conditions--><g id="link_workflow_transitions_workflow_conditions"><path codeLine="65" d="M532.2654,285.5416 C548.0454,311.1616 557.0608,325.8101 573.5408,352.5901 " fill="none" id="workflow_transitions-workflow_conditions" style="stroke:#181818;stroke-width:1.0;"/><line style="stroke:#181818;stroke-width:1.0;" x1="526.7619" x2="533.5735" y1="284.2335" y2="280.0381"/><line style="stroke:#181818;stroke-width:1.0;" x1="528.3352" x2="535.1468" y1="286.7879" y2="282.5924"/><line style="stroke:#181818;stroke-width:1.0;" x1="532.2654" x2="528.07" y1="285.5416" y2="278.73"/><polygon fill="none" points="579.83,362.81,580.092,355.6037,573.5408,352.5901,573.2788,359.7964,579.83,362.81" style="stroke:#181818;stroke-width:1.0;"/></g><!--link workflow_conditions to workflow_actions--><g id="link_workflow_conditions_workflow_actions"><path codeLine="66" d="M592.6927,484.9701 C582.8527,513.7601 577.3887,529.7841 567.5587,558.5641 " fill="none" id="workflow_conditions-workflow_actions" style="stroke:#181818;stroke-width:1.0;"/><line style="stroke:#181818;stroke-width:1.0;" x1="590.2013" x2="597.7714" y1="479.8914" y2="482.4787"/><line style="stroke:#181818;stroke-width:1.0;" x1="589.2311" x2="596.8011" y1="482.7301" y2="485.3175"/><line style="stroke:#181818;stroke-width:1.0;" x1="592.6927" x2="595.28" y1="484.9701" y2="477.4"/><polygon fill="none" points="563.68,569.92,569.4046,565.535,567.5587,558.5641,561.834,562.9492,563.68,569.92" style="stroke:#181818;stroke-width:1.0;"/></g><!--reverse link workflow_runs_actions to action_status--><g id="link_workflow_runs_actions_action_status"><path codeLine="68" d="M101.5,485.4 C101.5,506.25 101.5,522.34 101.5,544.97 " fill="none" id="workflow_runs_actions-backto-action_status" style="stroke:#181818;stroke-width:1.0;"/><line style="stroke:#181818;stroke-width:1.0;" x1="97.5" x2="105.5" y1="481.4" y2="481.4"/><line style="stroke:#181818;stroke-width:1.0;" x1="97.5" x2="105.5" y1="484.4" y2="484.4"/><line style="stroke:#181818;stroke-width:1.0;" x1="101.5" x2="101.5" y1="485.4" y2="477.4"/></g><!--link workflow_runs to workflow_runs_actions--><g id="link_workflow_runs_workflow_runs_actions"><path codeLine="70" d="M211.7182,301.1254 C191.2182,323.0654 182.1415,332.7908 162.2915,354.0408 " fill="none" id="workflow_runs-workflow_runs_actions" style="stroke:#181818;stroke-width:1.0;"/><line style="stroke:#181818;stroke-width:1.0;" x1="211.5264" x2="217.3718" y1="295.4718" y2="300.9336"/><line style="stroke:#181818;stroke-width:1.0;" x1="209.4782" x2="215.3237" y1="297.6639" y2="303.1256"/><line style="stroke:#181818;stroke-width:1.0;" x1="211.7182" x2="217.18" y1="301.1254" y2="295.28"/><polygon fill="none" points="154.1,362.81,161.1188,361.1559,162.2915,354.0408,155.2727,355.6949,154.1,362.81" style="stroke:#181818;stroke-width:1.0;"/></g><!--link workflow_runs to workflow_runs--><g id="link_workflow_runs_workflow_runs"><path codeLine="71" d="M366.4028,198.5347 C386.2028,200.9147 393,210.66 393,229.69 C393,248.72 390.1742,257.9879 370.3742,260.3679 " fill="none" id="workflow_runs-workflow_runs" style="stroke:#181818;stroke-width:1.0;"/><line style="stroke:#181818;stroke-width:1.0;" x1="361.954" x2="362.9088" y1="202.0288" y2="194.086"/><line style="stroke:#181818;stroke-width:1.0;" x1="364.9326" x2="365.8873" y1="202.3868" y2="194.444"/><line style="stroke:#181818;stroke-width:1.0;" x1="366.4028" x2="358.46" y1="198.5347" y2="197.58"/><polygon fill="none" points="358.46,261.8,364.8945,265.0554,370.3742,260.3679,363.9397,257.1125,358.46,261.8" style="stroke:#181818;stroke-width:1.0;"/></g><!--link workflow_runs to workflow_status--><g id="link_workflow_runs_workflow_status"><path codeLine="72" d="M287.1208,303.2107 C289.6608,322.3807 289.8238,323.564 292.3638,342.734 " fill="none" id="workflow_runs-workflow_status" style="stroke:#181818;stroke-width:1.0;"/><line style="stroke:#181818;stroke-width:1.0;" x1="282.6301" x2="290.5607" y1="299.7707" y2="298.7199"/><line style="stroke:#181818;stroke-width:1.0;" x1="283.0241" x2="290.9548" y1="302.7448" y2="301.6939"/><line style="stroke:#181818;stroke-width:1.0;" x1="287.1208" x2="286.07" y1="303.2107" y2="295.28"/><polygon fill="none" points="293.94,354.63,297.1172,348.1566,292.3638,342.734,289.1866,349.2074,293.94,354.63" style="stroke:#181818;stroke-width:1.0;"/></g><!--SRC=[lLDBRiCW5Dnp2YwG2tXdEQIo6bbMNNTh8KCgr1eYU2IgcjwzmIMuE3ZDgbuDZs7cVVou104V-AZqs-vT7Gt-H89bs5h1aAG3px01BUGhOjpqMkn1A1bYNmZn-7r7UyTmClZy1IbtYEHS82Nfua4iF4yOzKeoyKzUsgPTzfeVXBB64RhevbhMHGrGi2RoxpMdm5b78SFiZ40CF9K2Q2fDLEzEgy6tEtO1bGoF_D2rF-kzDSdVn8MwKnairse7x1_yjCYRrgHQbzN3Y9_QghhWEcyRiXvXyrZMjST5NXLak_MdJLvUODCM1McQu1MoZDpouhby8NE3UqIdxJcTLYkLdDeooNLxqeWcFMFwaTp5dVO3fNPcGHcb_m77ZYSqOwPgkavtYNcRuGs_0G00]--></g></svg>