<svg width="300" height="213" viewBox="0 0 300 213" fill="none" xmlns="http://www.w3.org/2000/svg">
    <mask id="mask0_9_2" style="mask-type:alpha" maskUnits="userSpaceOnUse" x="70" y="28" width="156" height="155">
    <ellipse cx="148" cy="105.5" rx="78" ry="77.5" fill="#DDEEDD"/>
    </mask>
    <g mask="url(#mask0_9_2)">
    <rect x="40" y="28" width="220" height="155" fill="#DDEEDD"/>
    <ellipse cx="127.104" cy="116.997" rx="38.1983" ry="35.9731" fill="url(#paint0_linear_9_2)"/>
    <path d="M160.852 131.831C156.401 132.696 145.795 132.943 138.971 127.01" stroke="#ED8743" stroke-width="4"/>
    <g filter="url(#filter0_d_9_2)">
    <ellipse cx="133.164" cy="95.7876" rx="53.0326" ry="12.98" transform="rotate(-30 133.164 95.7876)" fill="#BCBCBC"/>
    </g>
    <path d="M157.611 81.3943C152.202 72.0244 143.292 65.1874 132.841 62.3871C122.39 59.5869 111.255 61.0528 101.885 66.4625C92.5156 71.8721 85.6785 80.7824 82.8783 91.233C80.078 101.684 81.544 112.819 86.9536 122.189L122.283 101.791L157.611 81.3943Z" fill="#BCBCBC"/>
    <path d="M156.772 82.8777C157.019 87.4516 155.14 97.9345 145.646 103.275C128.142 113.956 121.17 116.255 119.686 116.997C109.896 121.15 101.762 123.425 98.9184 124.043C90.6112 125.23 88.04 123.796 87.7927 122.93" stroke="#827F7F" stroke-width="4"/>
    <path d="M156.772 83.2486C156.525 80.8998 155.066 75.5347 151.209 72.8646" stroke="#827F7F" stroke-width="4"/>
    <path d="M103.74 66.9308C111.157 67.7962 129.922 76.7215 141.196 105.5" stroke="#827F7F" stroke-width="4"/>
    <path d="M100.031 68.7851C97.8059 77.5621 95.4324 101.643 105.223 121.818" stroke="#827F7F" stroke-width="4"/>
    <ellipse cx="101.561" cy="67.103" rx="5.192" ry="1.48343" transform="rotate(-30 101.561 67.103)" fill="#827F7F"/>
    <path fill-rule="evenodd" clip-rule="evenodd" d="M196.35 124.576C195.573 124.453 194.806 124.444 194.068 124.536C193.395 124.22 192.662 123.992 191.885 123.869C188.833 123.385 185.932 124.664 184.34 126.919C183.048 125.149 181.564 124.201 180.447 124.63C178.759 125.278 178.55 128.827 179.982 132.556C180.626 134.235 181.493 135.664 182.405 136.669C182.518 137.79 182.82 138.875 183.285 139.891L174.361 150.708L183.514 157.984L192.899 146.609C199.052 147.31 204.65 143.454 205.548 137.786C206.124 134.149 204.628 130.623 201.879 128.237C200.751 126.362 198.766 124.958 196.35 124.576Z" fill="url(#paint1_linear_9_2)"/>
    </g>
    <defs>
    <filter id="filter0_d_9_2" x="82.7744" y="66.9796" width="100.779" height="65.616" filterUnits="userSpaceOnUse" color-interpolation-filters="sRGB">
    <feFlood flood-opacity="0" result="BackgroundImageFix"/>
    <feColorMatrix in="SourceAlpha" type="matrix" values="0 0 0 0 0 0 0 0 0 0 0 0 0 0 0 0 0 0 127 0" result="hardAlpha"/>
    <feOffset dy="4"/>
    <feGaussianBlur stdDeviation="2"/>
    <feComposite in2="hardAlpha" operator="out"/>
    <feColorMatrix type="matrix" values="0 0 0 0 0 0 0 0 0 0 0 0 0 0 0 0 0 0 0.25 0"/>
    <feBlend mode="normal" in2="BackgroundImageFix" result="effect1_dropShadow_9_2"/>
    <feBlend mode="normal" in="SourceGraphic" in2="effect1_dropShadow_9_2" result="shape"/>
    </filter>
    <linearGradient id="paint0_linear_9_2" x1="155.914" y1="138.337" x2="129.27" y2="100.825" gradientUnits="userSpaceOnUse">
    <stop stop-color="#FFCCAA"/>
    <stop offset="1" stop-color="#FF9955"/>
    </linearGradient>
    <linearGradient id="paint1_linear_9_2" x1="183.42" y1="116.15" x2="187.453" y2="137.928" gradientUnits="userSpaceOnUse">
    <stop stop-color="#FFCCAA"/>
    <stop offset="1" stop-color="#FF9955"/>
    </linearGradient>
    </defs>
    </svg>
    