<?xml version="1.0" encoding="us-ascii" standalone="no"?><svg xmlns="http://www.w3.org/2000/svg" xmlns:xlink="http://www.w3.org/1999/xlink" contentStyleType="text/css" height="630px" preserveAspectRatio="none" style="width:491px;height:630px;background:#FFFFFF;" version="1.1" viewBox="0 0 491 630" width="491px" zoomAndPan="magnify"><defs/><g><!--class workflows--><g id="elem_workflows"><rect codeLine="2" fill="#F1F1F1" height="96.8906" id="workflows" rx="2.5" ry="2.5" style="stroke:#181818;stroke-width:0.5;" width="137" x="131" y="7"/><ellipse cx="162.65" cy="23" fill="#ADD1B2" rx="11" ry="11" style="stroke:#181818;stroke-width:1.0;"/><path d="M166.7594,29 L159.0406,29 L159.0406,16.6094 L166.7594,16.6094 L166.7594,18.7656 L161.4938,18.7656 L161.4938,21.4375 L166.2594,21.4375 L166.2594,23.5938 L161.4938,23.5938 L161.4938,26.8438 L166.7594,26.8438 L166.7594,29 Z " fill="#000000"/><text fill="#000000" font-family="sans-serif" font-size="14" lengthAdjust="spacing" textLength="68" x="180.35" y="27.8467">workflows</text><line style="stroke:#181818;stroke-width:0.5;" x1="132" x2="267" y1="39" y2="39"/><text fill="#000000" font-family="sans-serif" font-size="14" lengthAdjust="spacing" textLength="51" x="137" y="55.9951">id: uuid</text><text fill="#000000" font-family="sans-serif" font-size="14" lengthAdjust="spacing" textLength="87" x="137" y="72.292">name: string</text><text fill="#000000" font-family="sans-serif" font-size="14" lengthAdjust="spacing" textLength="125" x="137" y="88.5889">description: string</text><line style="stroke:#181818;stroke-width:0.5;" x1="132" x2="267" y1="95.8906" y2="95.8906"/></g><!--class workflow_actions--><g id="elem_workflow_actions"><rect codeLine="8" fill="#F1F1F1" height="113.1875" id="workflow_actions" rx="2.5" ry="2.5" style="stroke:#181818;stroke-width:0.5;" width="149" x="261" y="510"/><ellipse cx="276" cy="526" fill="#ADD1B2" rx="11" ry="11" style="stroke:#181818;stroke-width:1.0;"/><path d="M280.1094,532 L272.3906,532 L272.3906,519.6094 L280.1094,519.6094 L280.1094,521.7656 L274.8438,521.7656 L274.8438,524.4375 L279.6094,524.4375 L279.6094,526.5938 L274.8438,526.5938 L274.8438,529.8438 L280.1094,529.8438 L280.1094,532 Z " fill="#000000"/><text fill="#000000" font-family="sans-serif" font-size="14" lengthAdjust="spacing" textLength="117" x="290" y="530.8467">workflow_actions</text><line style="stroke:#181818;stroke-width:0.5;" x1="262" x2="409" y1="542" y2="542"/><text fill="#000000" font-family="sans-serif" font-size="14" lengthAdjust="spacing" textLength="51" x="267" y="558.9951">id: uuid</text><text fill="#000000" font-family="sans-serif" font-size="14" lengthAdjust="spacing" textLength="87" x="267" y="575.292">name: string</text><text fill="#000000" font-family="sans-serif" font-size="14" lengthAdjust="spacing" textLength="125" x="267" y="591.5889">description: string</text><text fill="#000000" font-family="sans-serif" font-size="14" lengthAdjust="spacing" textLength="118" x="267" y="607.8857">workflow_id: uuid</text><line style="stroke:#181818;stroke-width:0.5;" x1="262" x2="409" y1="615.1875" y2="615.1875"/></g><!--class workflow_conditions--><g id="elem_workflow_conditions"><rect codeLine="15" fill="#F1F1F1" height="113.1875" id="workflow_conditions" rx="2.5" ry="2.5" style="stroke:#181818;stroke-width:0.5;" width="171" x="313" y="337"/><ellipse cx="328" cy="353" fill="#ADD1B2" rx="11" ry="11" style="stroke:#181818;stroke-width:1.0;"/><path d="M332.1094,359 L324.3906,359 L324.3906,346.6094 L332.1094,346.6094 L332.1094,348.7656 L326.8438,348.7656 L326.8438,351.4375 L331.6094,351.4375 L331.6094,353.5938 L326.8438,353.5938 L326.8438,356.8438 L332.1094,356.8438 L332.1094,359 Z " fill="#000000"/><text fill="#000000" font-family="sans-serif" font-size="14" lengthAdjust="spacing" textLength="139" x="342" y="357.8467">workflow_conditions</text><line style="stroke:#181818;stroke-width:0.5;" x1="314" x2="483" y1="369" y2="369"/><text fill="#000000" font-family="sans-serif" font-size="14" lengthAdjust="spacing" textLength="51" x="319" y="385.9951">id: uuid</text><text fill="#000000" font-family="sans-serif" font-size="14" lengthAdjust="spacing" textLength="87" x="319" y="402.292">name: string</text><text fill="#000000" font-family="sans-serif" font-size="14" lengthAdjust="spacing" textLength="125" x="319" y="418.5889">description: string</text><text fill="#000000" font-family="sans-serif" font-size="14" lengthAdjust="spacing" textLength="118" x="319" y="434.8857">workflow_id: uuid</text><line style="stroke:#181818;stroke-width:0.5;" x1="314" x2="483" y1="442.1875" y2="442.1875"/></g><!--class workflow_runs--><g id="elem_workflow_runs"><rect codeLine="22" fill="#F1F1F1" height="113.1875" id="workflow_runs" rx="2.5" ry="2.5" style="stroke:#181818;stroke-width:0.5;" width="155" x="23" y="164"/><ellipse cx="49.25" cy="180" fill="#ADD1B2" rx="11" ry="11" style="stroke:#181818;stroke-width:1.0;"/><path d="M53.3594,186 L45.6406,186 L45.6406,173.6094 L53.3594,173.6094 L53.3594,175.7656 L48.0938,175.7656 L48.0938,178.4375 L52.8594,178.4375 L52.8594,180.5938 L48.0938,180.5938 L48.0938,183.8438 L53.3594,183.8438 L53.3594,186 Z " fill="#000000"/><text fill="#000000" font-family="sans-serif" font-size="14" lengthAdjust="spacing" textLength="98" x="65.75" y="184.8467">workflow_runs</text><line style="stroke:#181818;stroke-width:0.5;" x1="24" x2="177" y1="196" y2="196"/><text fill="#000000" font-family="sans-serif" font-size="14" lengthAdjust="spacing" textLength="51" x="29" y="212.9951">id: uuid</text><text fill="#000000" font-family="sans-serif" font-size="14" lengthAdjust="spacing" textLength="118" x="29" y="229.292">workflow_id: uuid</text><text fill="#000000" font-family="sans-serif" font-size="14" lengthAdjust="spacing" textLength="91" x="29" y="245.5889">status: string</text><text fill="#000000" font-family="sans-serif" font-size="14" lengthAdjust="spacing" textLength="143" x="29" y="261.8857">created_at: datetime</text><line style="stroke:#181818;stroke-width:0.5;" x1="24" x2="177" y1="269.1875" y2="269.1875"/></g><!--class workflow_transitions--><g id="elem_workflow_transitions"><rect codeLine="29" fill="#F1F1F1" height="113.1875" id="workflow_transitions" rx="2.5" ry="2.5" style="stroke:#181818;stroke-width:0.5;" width="171" x="213" y="164"/><ellipse cx="228" cy="180" fill="#ADD1B2" rx="11" ry="11" style="stroke:#181818;stroke-width:1.0;"/><path d="M232.1094,186 L224.3906,186 L224.3906,173.6094 L232.1094,173.6094 L232.1094,175.7656 L226.8438,175.7656 L226.8438,178.4375 L231.6094,178.4375 L231.6094,180.5938 L226.8438,180.5938 L226.8438,183.8438 L232.1094,183.8438 L232.1094,186 Z " fill="#000000"/><text fill="#000000" font-family="sans-serif" font-size="14" lengthAdjust="spacing" textLength="139" x="242" y="184.8467">workflow_transitions</text><line style="stroke:#181818;stroke-width:0.5;" x1="214" x2="383" y1="196" y2="196"/><text fill="#000000" font-family="sans-serif" font-size="14" lengthAdjust="spacing" textLength="119" x="219" y="212.9951">from_action: uuid</text><text fill="#000000" font-family="sans-serif" font-size="14" lengthAdjust="spacing" textLength="102" x="219" y="229.292">to_action: uuid</text><text fill="#000000" font-family="sans-serif" font-size="14" lengthAdjust="spacing" textLength="141" x="219" y="245.5889">from_condition: uuid</text><text fill="#000000" font-family="sans-serif" font-size="14" lengthAdjust="spacing" textLength="124" x="219" y="261.8857">to_condition: uuid</text><line style="stroke:#181818;stroke-width:0.5;" x1="214" x2="383" y1="269.1875" y2="269.1875"/></g><!--class workflow_runs_actions--><g id="elem_workflow_runs_actions"><rect codeLine="36" fill="#F1F1F1" height="113.1875" id="workflow_runs_actions" rx="2.5" ry="2.5" style="stroke:#181818;stroke-width:0.5;" width="187" x="7" y="337"/><ellipse cx="22" cy="353" fill="#ADD1B2" rx="11" ry="11" style="stroke:#181818;stroke-width:1.0;"/><path d="M26.1094,359 L18.3906,359 L18.3906,346.6094 L26.1094,346.6094 L26.1094,348.7656 L20.8438,348.7656 L20.8438,351.4375 L25.6094,351.4375 L25.6094,353.5938 L20.8438,353.5938 L20.8438,356.8438 L26.1094,356.8438 L26.1094,359 Z " fill="#000000"/><text fill="#000000" font-family="sans-serif" font-size="14" lengthAdjust="spacing" textLength="155" x="36" y="357.8467">workflow_runs_actions</text><line style="stroke:#181818;stroke-width:0.5;" x1="8" x2="193" y1="369" y2="369"/><text fill="#000000" font-family="sans-serif" font-size="14" lengthAdjust="spacing" textLength="51" x="13" y="385.9951">id: uuid</text><text fill="#000000" font-family="sans-serif" font-size="14" lengthAdjust="spacing" textLength="148" x="13" y="402.292">workflow_run_id: uuid</text><text fill="#000000" font-family="sans-serif" font-size="14" lengthAdjust="spacing" textLength="167" x="13" y="418.5889">workflow_action_id: uuid</text><text fill="#000000" font-family="sans-serif" font-size="14" lengthAdjust="spacing" textLength="143" x="13" y="434.8857">created_at: datetime</text><line style="stroke:#181818;stroke-width:0.5;" x1="8" x2="193" y1="442.1875" y2="442.1875"/></g><!--class action_status--><g id="elem_action_status"><rect codeLine="43" fill="#F1F1F1" height="113.1875" id="action_status" rx="2.5" ry="2.5" style="stroke:#181818;stroke-width:0.5;" width="124" x="38.5" y="510"/><ellipse cx="53.5" cy="526" fill="#EB937F" rx="11" ry="11" style="stroke:#181818;stroke-width:1.0;"/><path d="M57.6094,532 L49.8906,532 L49.8906,519.6094 L57.6094,519.6094 L57.6094,521.7656 L52.3438,521.7656 L52.3438,524.4375 L57.1094,524.4375 L57.1094,526.5938 L52.3438,526.5938 L52.3438,529.8438 L57.6094,529.8438 L57.6094,532 Z " fill="#000000"/><text fill="#000000" font-family="sans-serif" font-size="14" lengthAdjust="spacing" textLength="92" x="67.5" y="530.8467">action_status</text><line style="stroke:#181818;stroke-width:0.5;" x1="39.5" x2="161.5" y1="542" y2="542"/><text fill="#000000" font-family="sans-serif" font-size="14" lengthAdjust="spacing" textLength="63" x="44.5" y="558.9951">PENDING</text><text fill="#000000" font-family="sans-serif" font-size="14" lengthAdjust="spacing" textLength="64" x="44.5" y="575.292">RUNNING</text><text fill="#000000" font-family="sans-serif" font-size="14" lengthAdjust="spacing" textLength="66" x="44.5" y="591.5889">SUCCESS</text><text fill="#000000" font-family="sans-serif" font-size="14" lengthAdjust="spacing" textLength="47" x="44.5" y="607.8857">FAILED</text><line style="stroke:#181818;stroke-width:0.5;" x1="39.5" x2="161.5" y1="615.1875" y2="615.1875"/></g><!--link workflows to workflow_transitions--><g id="link_workflows_workflow_transitions"><path codeLine="50" d="M232.5535,110.9173 C243.9135,129.6173 246.6525,134.1224 258.4425,153.5424 " fill="none" id="workflows-workflow_transitions" style="stroke:#181818;stroke-width:1.0;"/><line style="stroke:#181818;stroke-width:1.0;" x1="227.0581" x2="233.8954" y1="109.5754" y2="105.4219"/><line style="stroke:#181818;stroke-width:1.0;" x1="228.6157" x2="235.453" y1="112.1394" y2="107.9858"/><line style="stroke:#181818;stroke-width:1.0;" x1="232.5535" x2="228.4" y1="110.9173" y2="104.08"/><polygon fill="none" points="264.67,163.8,264.9755,156.5954,258.4425,153.5424,258.1371,160.747,264.67,163.8" style="stroke:#181818;stroke-width:1.0;"/></g><!--link workflows to workflow_runs--><g id="link_workflows_workflow_runs"><path codeLine="51" d="M166.4465,110.9173 C155.0865,129.6173 152.3475,134.1224 140.5575,153.5424 " fill="none" id="workflows-workflow_runs" style="stroke:#181818;stroke-width:1.0;"/><line style="stroke:#181818;stroke-width:1.0;" x1="165.1046" x2="171.9419" y1="105.4219" y2="109.5754"/><line style="stroke:#181818;stroke-width:1.0;" x1="163.547" x2="170.3843" y1="107.9858" y2="112.1394"/><line style="stroke:#181818;stroke-width:1.0;" x1="166.4465" x2="170.6" y1="110.9173" y2="104.08"/><polygon fill="none" points="134.33,163.8,140.8629,160.747,140.5575,153.5424,134.0245,156.5954,134.33,163.8" style="stroke:#181818;stroke-width:1.0;"/></g><!--link workflow_transitions to workflow_actions--><g id="link_workflow_transitions_workflow_actions"><path codeLine="53" d="M291.5601,285.3019 C287.6501,331.8319 285.69,391.71 295.5,450 C298.86,469.98 301.2087,479.8417 307.9387,498.5017 " fill="none" id="workflow_transitions-workflow_actions" style="stroke:#181818;stroke-width:1.0;"/><line style="stroke:#181818;stroke-width:1.0;" x1="287.9091" x2="295.881" y1="280.981" y2="281.6509"/><line style="stroke:#181818;stroke-width:1.0;" x1="287.6579" x2="295.6298" y1="283.9705" y2="284.6404"/><line style="stroke:#181818;stroke-width:1.0;" x1="291.5601" x2="292.23" y1="285.3019" y2="277.33"/><polygon fill="none" points="312.01,509.79,313.7371,502.7888,307.9387,498.5017,306.2116,505.503,312.01,509.79" style="stroke:#181818;stroke-width:1.0;"/></g><!--link workflow_transitions to workflow_conditions--><g id="link_workflow_transitions_workflow_conditions"><path codeLine="54" d="M335.0074,283.9264 C346.2374,303.1364 348.7362,307.389 359.9662,326.609 " fill="none" id="workflow_transitions-workflow_conditions" style="stroke:#181818;stroke-width:1.0;"/><line style="stroke:#181818;stroke-width:1.0;" x1="329.5355" x2="336.4419" y1="282.4919" y2="278.4545"/><line style="stroke:#181818;stroke-width:1.0;" x1="331.0495" x2="337.956" y1="285.0819" y2="281.0444"/><line style="stroke:#181818;stroke-width:1.0;" x1="335.0074" x2="330.97" y1="283.9264" y2="277.02"/><polygon fill="none" points="366.02,336.97,366.4468,329.7715,359.9662,326.609,359.5394,333.8074,366.02,336.97" style="stroke:#181818;stroke-width:1.0;"/></g><!--link workflow_conditions to workflow_actions--><g id="link_workflow_conditions_workflow_actions"><path codeLine="55" d="M375.2835,457.5264 C368.2035,476.7364 367.1879,479.4897 360.1079,498.7097 " fill="none" id="workflow_conditions-workflow_actions" style="stroke:#181818;stroke-width:1.0;"/><line style="stroke:#181818;stroke-width:1.0;" x1="372.9135" x2="380.4199" y1="452.3899" y2="455.1565"/><line style="stroke:#181818;stroke-width:1.0;" x1="371.8761" x2="379.3825" y1="455.2048" y2="457.9714"/><line style="stroke:#181818;stroke-width:1.0;" x1="375.2835" x2="378.05" y1="457.5264" y2="450.02"/><polygon fill="none" points="355.96,509.97,361.7874,505.7225,360.1079,498.7097,354.2805,502.9572,355.96,509.97" style="stroke:#181818;stroke-width:1.0;"/></g><!--reverse link workflow_runs_actions to action_status--><g id="link_workflow_runs_actions_action_status"><path codeLine="57" d="M100.5,458.02 C100.5,477.23 100.5,490.75 100.5,509.97 " fill="none" id="workflow_runs_actions-backto-action_status" style="stroke:#181818;stroke-width:1.0;"/><line style="stroke:#181818;stroke-width:1.0;" x1="96.5" x2="104.5" y1="454.02" y2="454.02"/><line style="stroke:#181818;stroke-width:1.0;" x1="96.5" x2="104.5" y1="457.02" y2="457.02"/><line style="stroke:#181818;stroke-width:1.0;" x1="100.5" x2="100.5" y1="458.02" y2="450.02"/></g><!--link workflow_runs to workflow_runs_actions--><g id="link_workflow_runs_workflow_runs_actions"><path codeLine="59" d="M100.5,285.02 C100.5,304.23 100.5,305.75 100.5,324.97 " fill="none" id="workflow_runs-workflow_runs_actions" style="stroke:#181818;stroke-width:1.0;"/><line style="stroke:#181818;stroke-width:1.0;" x1="96.5" x2="104.5" y1="281.02" y2="281.02"/><line style="stroke:#181818;stroke-width:1.0;" x1="96.5" x2="104.5" y1="284.02" y2="284.02"/><line style="stroke:#181818;stroke-width:1.0;" x1="100.5" x2="100.5" y1="285.02" y2="277.02"/><polygon fill="none" points="100.5,336.97,104.5,330.97,100.5,324.97,96.5,330.97,100.5,336.97" style="stroke:#181818;stroke-width:1.0;"/></g><!--SRC=[lLB1Yi8m4BtdA_83_a1lebqHbh9OF9VGf4lG9f9Ca6NTVzTfQshgL3njJfEND-ynBwCCQFZXP-iEpT6UFVzbMcOy12sP4QtAk0UdpJUJojTEdq1R4x4_nbJQNuaQ6IZ3RoTAuIMHGu2IH3oAnNR2gBP6wd_oSe5sUMv6r8E0u1ENsYa1IbO2CYvl5UXMKKRWXF79L8spxH3gWmNOPwnZnbHIyXIUcV7LxpqIA_gbxquVvoSFBHyQ-i06qw-yM6-BJLVlzaLnhylzQfMNPLT_BBUV-HfbnhszN1OBIoOvJyAPHuqa_Gbp2EOjxhYPZDhM6ML6_mIoqvmcJ6gcA7e5]--></g></svg>